<svg height="512pt" viewBox="0 0 512 512" width="512pt" xmlns="http://www.w3.org/2000/svg"><path d="m497 203.019531h-46.25v-71.746093c0-8.214844-6.609375-14.878907-14.800781-14.988282l6.023437-30.917968c1.582032-8.132813-3.726562-16.007813-11.859375-17.589844-8.128906-1.578125-16.003906 3.726562-17.589843 11.855468l-7.132813 36.640626h-5.277344l-7.136719-36.640626c-1.582031-8.132812-9.453124-13.441406-17.589843-11.855468-8.132813 1.582031-13.441407 9.457031-11.855469 17.589844l6.019531 30.917968c-8.191406.109375-14.800781 6.773438-14.800781 14.988282v71.746093h-127.25v-38.019531h58.5c8.285156 0 15-6.714844 15-15v-135c0-8.285156-6.714844-15-15-15h-213c-8.285156 0-15 6.714844-15 15v135c0 8.285156 6.714844 15 15 15h64.5v38.019531h-122.5c-8.285156 0-15 6.71875-15 15v60.003907c0 8.28125 6.714844 15 15 15h21v203.976562c0 8.285156 6.714844 15 15 15s15-6.714844 15-15v-203.976562h218v203.972656c0 8.28125 6.714844 15 15 15h167.992188c8.285156 0 15-6.71875 15-15v-203.972656h15.007812c8.285156 0 15-6.71875 15-15v-60.003907c0-8.28125-6.714844-15-15-15zm-112.25-56.746093h36v56.746093h-36zm-296.75-116.273438h183v105h-183zm79.5 135h30v38.019531h-30zm284.492188 244.007812h-137.992188v-42.992187h137.992188zm-137.992188 72.988282v-42.988282h137.992188v42.988282zm137.992188-145.980469h-137.992188v-42.992187h137.992188zm30.007812-72.992187h-452v-30.003907h452zm0 0"/></svg>