<svg height="512pt" viewBox="-71 0 512 512" width="512pt" xmlns="http://www.w3.org/2000/svg"><path d="m365.042969 200.507812c3.195312-3.226562 4.957031-7.503906 4.957031-12.042968v-26.515625c0-16.089844-13.085938-29.179688-29.167969-29.179688h-24.730469l-24.8125-109.796875c-3.054687-13.527344-14.871093-22.972656-28.730468-22.972656h-155.117188c-13.859375 0-25.675781 9.445312-28.730468 22.96875l-24.8125 109.804688h-24.730469c-16.082031 0-29.167969 13.089843-29.167969 29.179687v26.511719c0 4.539062 1.761719 8.816406 4.964844 12.054687l19.839844 20.007813v206.957031c-14.019532 2.109375-24.804688 14.246094-24.804688 28.851563v26.484374c0 16.089844 13.085938 29.179688 29.167969 29.179688h311.664062c16.082031 0 29.167969-13.089844 29.167969-29.179688v-26.484374c0-14.605469-10.785156-26.742188-24.804688-28.855469v-206.957031zm-257.164063-170.507812h154.242188l8.222656 36.386719h-170.6875zm-15.003906 66.386719h184.25l8.222656 36.386719h-200.695312zm-62.875 66.382812h310v20.390625l-16.054688 16.1875h-277.890624l-16.054688-16.191406zm285.195312 264.386719h-23.019531v-117.039062c0-28.183594-22.929687-51.113282-51.113281-51.113282h-112.375c-28.183594 0-51.113281 22.929688-51.113281 51.113282v117.039062h-22.765625v-197.808594h260.386718zm-149.558593-19.363281c0-6.40625 9.507812-32.375 19.363281-53.144531 9.851562 20.769531 19.363281 46.738281 19.363281 53.144531 0 10.675781-8.6875 19.363281-19.363281 19.363281s-19.363281-8.6875-19.363281-19.363281zm36.84375-84.410157c-3.636719-6.15625-10.332031-9.980468-17.480469-9.980468s-13.84375 3.824218-17.480469 9.980468c-8.191406 13.878907-31.882812 64.453126-31.882812 84.410157 0 6.867187 1.410156 13.414062 3.957031 19.363281h-32.019531v-117.039062c0-11.640626 9.472656-21.113282 21.113281-21.113282h112.375c11.644531 0 21.117188 9.472656 21.117188 21.113282v117.039062h-31.773438c2.546875-5.949219 3.960938-12.496094 3.960938-19.363281-.003907-19.957031-23.691407-70.53125-31.886719-84.410157zm137.519531 158.617188h-310v-24.84375h310zm0 0"/></svg>