<svg height="480pt" viewBox="-24 0 480 480.00012" width="480pt" xmlns="http://www.w3.org/2000/svg"><path d="m144 240c13.253906 0 24-10.746094 24-24s-10.746094-24-24-24-24 10.746094-24 24 10.746094 24 24 24zm0-32c4.417969 0 8 3.582031 8 8s-3.582031 8-8 8-8-3.582031-8-8 3.582031-8 8-8zm0 0"/><path d="m408 192v-184c0-4.417969-3.582031-8-8-8h-384c-8.835938 0-16 7.164062-16 16v416c0 8.835938 7.164062 16 16 16h11.054688l-10.214844 20.425781c-1.238282 2.480469-1.105469 5.425781.351562 7.78125 1.460938 2.359375 4.035156 3.792969 6.808594 3.792969h32c3.03125 0 5.804688-1.710938 7.160156-4.425781l13.785156-27.574219h230.109376l13.785156 27.574219c1.355468 2.714843 4.128906 4.425781 7.160156 4.425781h32c2.78125.015625 5.367188-1.414062 6.835938-3.773438 1.46875-2.363281 1.605468-5.316406.363281-7.800781l-10.253907-20.425781h43.054688c4.417969 0 8-3.582031 8-8v-200c13.253906 0 24-10.746094 24-24s-10.746094-24-24-24zm-112 192c0-4.417969 3.582031-8 8-8h32c4.417969 0 8 3.582031 8 8s-3.582031 8-8 8h-32c-4.417969 0-8-3.582031-8-8zm8 24h32c4.417969 0 8 3.582031 8 8s-3.582031 8-8 8h-32c-4.417969 0-8-3.582031-8-8s3.582031-8 8-8zm49.761719-8c6.390625-7.007812 8.03125-17.132812 4.183593-25.800781-3.847656-8.667969-12.460937-14.242188-21.945312-14.199219h-32c-9.484375-.042969-18.097656 5.53125-21.945312 14.199219-3.847657 8.667969-2.207032 18.792969 4.183593 25.800781-8.320312 9.042969-8.320312 22.957031 0 32h-86.238281v-368h72v16h-48c-8.835938 0-16 7.164062-16 16v24c0 4.417969 3.582031 8 8 8h24v48c0 4.417969 3.582031 8 8 8h64c4.417969 0 8-3.582031 8-8v-48h24c4.417969 0 8-3.582031 8-8v-24c0-8.835938-7.164062-16-16-16h-48v-16h80v368h-14.238281c8.320312-9.042969 8.320312-22.957031 0-32zm-17.761719-304v16h-16v-16zm-32 24v48h-48v-72c0 13.253906 10.746094 24 24 24s24-10.746094 24-24zm-64-8h-16v-16h16zm40-8c-4.417969 0-8-3.582031-8-8h16c0 4.417969-3.582031 8-8 8zm88-56h-80v-16h-16v16h-72v-32h168zm-352-32h168v8h-136c-13.253906 0-24 10.746094-24 24v352c0 13.253906 10.746094 24 24 24h136v8h-168zm160 24v368h-128c-4.417969 0-8-3.582031-8-8v-352c0-4.417969 3.582031-8 8-8zm-124.945312 424h-14.109376l8-16h14.109376zm296 0h-14.109376l-8-16h14.109376zm44.945312-32h-8v-416h8zm16-208v-16c4.417969 0 8 3.582031 8 8s-3.582031 8-8 8zm0 0"/></svg>