<svg height="512pt" viewBox="0 0 512 512" width="512pt" xmlns="http://www.w3.org/2000/svg"><path d="m389.0625 419.863281c0 11.039063-8.949219 19.992188-19.992188 19.992188-11.039062 0-19.988281-8.953125-19.988281-19.992188 0-11.039062 8.949219-19.988281 19.988281-19.988281 11.042969 0 19.992188 8.949219 19.992188 19.988281zm73.960938-111.945312h48.976562v-39.980469h-48.976562zm0-109.945313v39.980469h48.976562v-39.980469zm0 179.910156h48.976562v-39.976562h-48.976562zm-29.984376-22.734374c17.039063 17.375 26.988282 40.929687 26.988282 64.714843 0 50.703125-41.253906 91.953125-91.957032 91.953125-50.703124 0-91.953124-41.25-91.953124-91.953125 0-23.746093 9.917968-47.269531 26.914062-64.640625l.074219-122.277344c0-35.8125 29.144531-64.957031 64.964843-64.957031 35.824219 0 64.96875 29.144531 64.96875 64.96875zm-12.992187 64.714843c0-15.195312-7.375-30.359375-19.726563-40.558593l-7.261718-5.996094v-140.351563c0-13.777343-11.210938-24.988281-24.988282-24.988281-13.777343 0-24.988281 11.210938-24.988281 24.988281l-.082031 140.402344-7.234375 5.992187c-12.316406 10.203126-19.667969 25.34375-19.667969 40.511719 0 28.660157 23.316406 51.976563 51.972656 51.976563 28.660157 0 51.976563-23.316406 51.976563-51.976563zm-309.847656 51.976563c-11.023438 0-19.988281-8.96875-19.988281-19.992188v-246.367187l165.914062-151.363281 80.996094 73.890624h59.324218l-140.320312-128.007812-256.125 233.660156 26.945312 29.535156 23.285157-21.242187v209.894531c0 33.070313 26.902343 59.972656 59.96875 59.972656h163.359375c-11.191406-11.503906-20.3125-25.03125-26.746094-39.980468zm0 0"/></svg>