<svg height="448pt" viewBox="-31 0 447 448" width="448pt" xmlns="http://www.w3.org/2000/svg"><path d="m368.5 245.441406c.007812-16.351562-7.132812-31.886718-19.550781-42.519531l-16.898438-14.480469c-12.410156-10.640625-19.550781-26.171875-19.550781-42.519531v-1.921875h-32v1.921875c.007812 16.347656-7.136719 31.886719-19.558594 42.519531l-16.882812 14.480469c-12.421875 10.628906-19.566406 26.167969-19.558594 42.519531v162.558594c.027344 22.082031 17.921875 39.972656 40 40h64c22.082031-.027344 39.972656-17.917969 40-40zm-24 74.558594c0 26.507812-21.488281 48-48 48-26.507812 0-48-21.492188-48-48v-16c0-26.507812 21.492188-48 48-48 26.511719 0 48 21.492188 48 48zm0 0"/><path d="m296.5 272c-17.671875 0-32 14.328125-32 32v16c0 17.671875 14.328125 32 32 32s32-14.328125 32-32v-16c0-17.671875-14.328125-32-32-32zm0 0"/><path d="m312.5 96h-32c-4.417969 0-8 3.582031-8 8v24h48v-24c0-4.417969-3.582031-8-8-8zm0 0"/><path d="m336.5 8c0 4.417969-3.582031 8-8 8s-8-3.582031-8-8 3.582031-8 8-8 8 3.582031 8 8zm0 0"/><path d="m384.5 64c0 8.835938-7.164062 16-16 16s-16-7.164062-16-16 7.164062-16 16-16 16 7.164062 16 16zm0 0"/><path d="m216.5 48v-8c-.027344-22.082031-17.917969-39.9726562-40-40h-128c-4.417969 0-8 3.582031-8 8s3.582031 8 8 8h128c13.253906 0 24 10.746094 24 24v8zm0 0"/><path d="m88.5 232c-22.078125.027344-39.972656 17.917969-40 40v64c0 22.089844 17.910156 40 40 40s40-17.910156 40-40v-64c-.027344-22.082031-17.917969-39.972656-40-40zm0 0"/><path d="m56.5 64h64v32h-64zm0 0"/><path d="m72.5 32h32v16h-32zm0 0"/><path d="m176.5 217.441406c.09375-27.300781-15.347656-52.277344-39.808594-64.402344l-2.078125-1.039062c-13.585937-6.734375-22.164062-20.609375-22.113281-35.777344v-4.222656h-48v4.222656c.050781 15.167969-8.523438 29.042969-22.113281 35.777344l-2.078125 1.039062c-24.460938 12.125-39.898438 37.101563-39.808594 64.402344v190.558594c.027344 22.082031 17.921875 39.972656 40 40h96c22.082031-.027344 39.972656-17.917969 40-40zm-32 118.558594c0 30.929688-25.070312 56-56 56-30.925781 0-56-25.070312-56-56v-64c0-30.929688 25.074219-56 56-56 30.929688 0 56 25.070312 56 56zm0 0"/></svg>