<svg id="Layer_1" enable-background="new 0 0 128 128" height="512" viewBox="0 0 128 128" width="512" xmlns="http://www.w3.org/2000/svg"><path d="m14.4 83.6c0 1 .7 1.8 1.7 1.8h.1c.9 0 1.7-.7 1.7-1.7 0-.4.4-9.3-4.9-14.5-1.5-1.5-2.1-3.1-1.6-4.6s1.7-2.7 3.3-3.1c.9-.2 1.6-1.1 1.4-2s-1.1-1.6-2-1.4c-2.8.6-5.1 2.7-6 5.5-.5 1.6-.8 4.9 2.5 8.1 4.1 4.1 3.8 11.8 3.8 11.9z"/><path d="m119.9 62.5-2.2-5.7c-1-2.6-3.9-3.9-6.5-2.9l-95.7 36.3c-2.6 1-3.9 3.9-2.9 6.5l2.2 5.7c1 2.6 3.9 3.9 6.5 2.9l95.7-36.3c2.6-1 3.9-3.9 2.9-6.5zm-92.5 36.8-3.3-8.6 60.1-22.8 3.3 8.6zm-7.4 2.8c-.8.3-1.7-.1-2-.9l-2.2-5.7c-.3-.8.1-1.7.9-2l4.1-1.6 3.3 8.6zm95.8-36.4-25 9.5-3.3-8.6 25-9.5c.8-.3 1.7.1 2 .9l2.2 5.7c.3.8-.1 1.7-.9 2z"/><path d="m22.9 58.3c-.3 3.1-2 5.8-4.7 7.5-.8.5-1.1 1.6-.6 2.4s1.5 1.1 2.4.6c3.6-2.2 6-5.9 6.4-10.1.6-5.6-1.9-11.3-7.1-16.1-2.3-1.9-3.7-4.6-3.8-7.6-.1-5.3 4.2-9.7 4.3-9.7.7-.7.7-1.8 0-2.5s-1.8-.7-2.5 0c-.2.2-5.4 5.5-5.3 12.3.1 3.7 1.7 7.1 4.9 10.1 4.4 4 6.5 8.7 6 13.1z"/></svg>