<svg height="512" viewBox="0 0 64 64" width="512" xmlns="http://www.w3.org/2000/svg"><g id="Car_park" data-name="Car park"><path d="m13 56a1 1 0 0 0 -1-1h-3a1 1 0 0 0 -1 1v4h5z"/><path d="m12 12h-2v4h2a2 2 0 0 0 0-4z"/><path d="m10 26h1v27h-1z"/><path d="m18 8h-14v16h14zm-6 10h-2v3a1 1 0 0 1 -2 0v-10a1 1 0 0 1 1-1h3a4 4 0 0 1 0 8z"/><path d="m57.654 54.966a3 3 0 0 0 .7-2.39l-.857-6a3.015 3.015 0 0 0 -2.966-2.576h-31.062a3.015 3.015 0 0 0 -2.97 2.576l-.857 6a3 3 0 0 0 2.97 3.424h32.776a3 3 0 0 0 2.266-1.034zm-30.654-1.966a3 3 0 1 1 3-3 3 3 0 0 1 -3 3zm18.949-3.684-1 3a1 1 0 0 1 -.949.684h-10a1 1 0 0 1 -.949-.684l-1-3a1 1 0 0 1 .949-1.316h12a1 1 0 0 1 .949 1.316zm5.051 3.684a3 3 0 1 1 3-3 3 3 0 0 1 -3 3z"/><path d="m30 58h-6v1a1 1 0 0 0 1 1h4a1 1 0 0 0 1-1z"/><circle cx="51" cy="50" r="1"/><circle cx="27" cy="50" r="1"/><path d="m34.721 51h8.558l.334-1h-9.226z"/><path d="m54 58h-6v1a1 1 0 0 0 1 1h4a1 1 0 0 0 1-1z"/><path d="m34.673 30a9.045 9.045 0 0 0 -8.91 7.728l-.61 4.272h27.694l-.61-4.272a9.045 9.045 0 0 0 -8.91-7.728zm-5.673 9a1 1 0 0 1 -.707-1.707l5-5a1 1 0 0 1 1.414 1.414l-5 5a1 1 0 0 1 -.707.293zm10.707-5.293-5 5a1 1 0 0 1 -1.414-1.414l5-5a1 1 0 0 1 1.414 1.414z"/><path d="m59 40a1 1 0 0 0 1-1v-1a1 1 0 0 0 -1-1h-2.266a1 1 0 0 0 -.989.858l-.5 3.48 1.045-1.045a1 1 0 0 1 .71-.293z"/><path d="m19 37a1 1 0 0 0 -1 1v1a1 1 0 0 0 1 1h2a1 1 0 0 1 .707.293l1.045 1.045-.5-3.479a1 1 0 0 0 -.986-.859z"/></g></svg>