<svg height="512pt" viewBox="0 -120 512 511" width="512pt" xmlns="http://www.w3.org/2000/svg"><path d="m497 123.488281h-25.261719v-35.421875c0-23.882812-19.425781-43.3125-43.308593-43.3125h-13.308594v-.945312c0-23.878906-19.429688-43.308594-43.308594-43.308594-23.882812 0-43.3125 19.429688-43.3125 43.308594v79.679687h-145.324219v-79.675781c0-23.882812-19.429687-43.3125-43.3125-43.3125-23.878906 0-43.308593 19.429688-43.308593 43.3125v.945312h-13.308594c-23.882813 0-43.308594 19.425782-43.308594 43.308594v35.421875h-24.9375c-8.285156 0-15 6.714844-15 15 0 8.285157 6.714844 15 15 15h24.9375v35.421875c0 23.882813 19.425781 43.3125 43.308594 43.3125h13.609375c2.503906 21.519532 20.832031 38.28125 43.007812 38.28125 23.882813 0 43.3125-19.429687 43.3125-43.3125v-73.703125h145.328125v73.703125c0 23.882813 19.425782 43.3125 43.308594 43.3125 22.179688 0 40.507812-16.761718 43.007812-38.28125h13.609376c23.882812 0 43.308593-19.429687 43.308593-43.308594v-35.425781h25.261719c8.285156 0 15-6.714843 15-15 0-8.285156-6.714844-15-15-15zm-427.0625 65.421875v-100.84375c0-7.339844 5.96875-13.3125 13.308594-13.3125h13.308594v127.46875h-13.308594c-7.339844 0-13.308594-5.972656-13.308594-13.3125zm83.238281 38.28125c0 7.339844-5.972656 13.308594-13.3125 13.308594-7.335937 0-13.308593-5.96875-13.308593-13.308594v-183.378906c0-7.339844 5.972656-13.3125 13.308593-13.3125 7.339844 0 13.3125 5.972656 13.3125 13.3125zm218.636719 13.308594c-7.339844 0-13.308594-5.96875-13.308594-13.308594v-183.378906c0-7.339844 5.96875-13.3125 13.308594-13.3125s13.308594 5.972656 13.308594 13.3125v183.378906c0 7.339844-5.96875 13.308594-13.308594 13.308594zm69.925781-51.589844c0 7.339844-5.96875 13.3125-13.308593 13.3125h-13.308594v-127.464844h13.308594c7.339843 0 13.308593 5.96875 13.308593 13.308594zm0 0"/></svg>