<?xml version="1.0" encoding="iso-8859-1"?>
<!-- Generator: Adobe Illustrator 19.0.0, SVG Export Plug-In . SVG Version: 6.00 Build 0)  -->
<svg xmlns="http://www.w3.org/2000/svg" xmlns:xlink="http://www.w3.org/1999/xlink" version="1.1" id="Layer_1" x="0px" y="0px" viewBox="0 0 498.308 498.308" style="enable-background:new 0 0 498.308 498.308;" xml:space="preserve" width="512" height="512">
<g>
	<path d="M130.944,301.46c2.75,12.87,14.29,22.21,27.45,22.21h181.52c13.16,0,24.7-9.34,27.45-22.21l7.2-33.67h-250.82   L130.944,301.46z M316.184,280.25h8.52c8.29,0,15,6.72,15,15c0,8.29-6.71,15-15,15h-8.52c-8.28,0-15-6.71-15-15   C301.184,286.97,307.904,280.25,316.184,280.25z M244.894,280.25h8.52c8.29,0,15,6.72,15,15c0,8.29-6.71,15-15,15h-8.52   c-8.29,0-15-6.71-15-15C229.894,286.97,236.604,280.25,244.894,280.25z M173.604,280.25h8.52c8.28,0,15,6.72,15,15   c0,8.29-6.72,15-15,15h-8.52c-8.29,0-15-6.71-15-15C158.604,286.97,165.314,280.25,173.604,280.25z"/>
	<path d="M354.724,156.12c-21.556,35.934-60.892,59.92-105.57,59.92c-44.239,0-83.783-23.6-105.57-59.92h-65.4   c-8.284,0-15,6.716-15,15v51.67c0,8.25,6.75,15,15,15h341.94c8.25,0,15-6.75,15-15v-51.67c0-8.284-6.716-15-15-15H354.724z"/>
	<path d="M203.326,422.504c-2.566-4.462-2.858-9.448-0.822-14.038l13.188-29.732c3.358-7.573-0.058-16.435-7.63-19.794   c-7.573-3.358-16.434,0.058-19.794,7.63l-13.188,29.733c-5.929,13.37-5.113,28.371,2.239,41.156l8.288,14.413   c3.344,5.815,2.813,12.311-1.455,17.819l-3.431,4.428c-5.074,6.549-3.878,15.971,2.67,21.045c6.546,5.073,15.968,3.881,21.045-2.67   l3.43-4.428c11.741-15.152,13.178-34.751,3.747-51.149L203.326,422.504z"/>
	<path d="M258.47,422.504c-2.566-4.462-2.858-9.448-0.822-14.039l13.187-29.732c3.358-7.572-0.058-16.435-7.631-19.793   c-7.57-3.359-16.435,0.057-19.793,7.631l-13.187,29.731c-5.93,13.369-5.114,28.37,2.239,41.157l8.287,14.412   c3.345,5.816,2.814,12.312-1.454,17.82l-3.431,4.428c-5.074,6.549-3.878,15.971,2.67,21.045c6.546,5.073,15.968,3.881,21.045-2.67   l3.43-4.428c11.74-15.15,13.177-34.75,3.747-51.149L258.47,422.504z"/>
	<path d="M313.615,422.504c-2.566-4.462-2.858-9.448-0.822-14.039l13.187-29.732c3.358-7.572-0.058-16.435-7.631-19.793   c-7.57-3.359-16.435,0.057-19.793,7.631l-13.187,29.731c-5.93,13.369-5.114,28.37,2.238,41.156l8.288,14.414   c3.344,5.815,2.813,12.311-1.455,17.819l-3.431,4.428c-5.074,6.549-3.878,15.971,2.67,21.045c6.547,5.074,15.969,3.879,21.045-2.67   l3.43-4.428c11.741-15.152,13.178-34.751,3.748-51.148L313.615,422.504z"/>
	<path d="M249.154,186.04c51.326,0,93.02-41.792,93.02-93.02c0-51.29-41.73-93.02-93.02-93.02s-93.02,41.73-93.02,93.02   C156.134,144.137,197.731,186.04,249.154,186.04z M271.384,148.22c0,8.367-6.814,15-15,15h-14.46c-8.184,0-15-6.632-15-15   c0-8.29,6.719-15,15-15h14.46C264.674,133.22,271.384,139.939,271.384,148.22z M249.154,110.58c-8.206,0-16.434,3.477-22.88,10.55   c-5.58,6.13-15.06,6.57-21.19,1c-6.12-5.58-6.57-15.07-0.99-21.19c11.95-13.13,27.95-20.36,45.06-20.36s33.11,7.23,45.06,20.36   c5.58,6.12,5.13,15.61-0.99,21.19c-6.141,5.587-15.624,5.13-21.19-1C265.588,114.058,257.361,110.58,249.154,110.58z    M181.864,61.99c17.89-19.65,41.79-30.47,67.29-30.47s49.4,10.82,67.29,30.47c5.58,6.13,5.13,15.61-0.99,21.19   c-6.143,5.588-15.621,5.124-21.19-0.99c-12.064-13.258-28.068-20.67-45.11-20.67c-17.036,0-33.042,7.408-45.11,20.67   c-5.58,6.12-15.06,6.57-21.19,0.99C176.734,77.6,176.284,68.12,181.864,61.99z"/>
</g>















</svg>
