<svg height="512pt" viewBox="-46 0 512 512.001" width="512pt" xmlns="http://www.w3.org/2000/svg"><path d="m405.003906 0c-8.285156 0-15 6.714844-15 15v70c0 8.269531-6.730468 15-15 15h-330.003906c-8.269531 0-15-6.730469-15-15v-70c0-8.285156-6.714844-15-15-15s-15 6.714844-15 15v70c0 24.8125 20.1875 45 45 45v45c0 24.8125 20.1875 45 45 45h240c24.816406 0 45.003906-20.1875 45.003906-45v-45c24.8125 0 45-20.1875 45-45v-70c0-8.285156-6.71875-15-15-15zm-210.003906 130h30v60h-30zm-30 60h-30v-60h30zm90-60h30v60h-30zm-180 45v-45h30v60h-15c-8.269531 0-15-6.730469-15-15zm270 0c0 8.269531-6.726562 15-15 15h-15v-60h30zm0 0"/><path d="m345.003906 70c8.261719 0 15-6.738281 15-15 0-8.265625-6.738281-15-15-15-8.261718 0-15 6.738281-15 15s6.738282 15 15 15zm0 0"/><path d="m164.992188 271.5c4.140624-7.175781 1.683593-16.351562-5.492188-20.492188-7.175781-4.144531-16.347656-1.683593-20.488281 5.492188-30.734375 53.234375-6.703125 91.121094 12.609375 121.5625 22.105468 34.847656 38.078125 60.023438-10.226563 108.332031-5.859375 5.855469-5.859375 15.355469 0 21.210938 2.929688 2.929687 6.769531 4.394531 10.605469 4.394531 3.839844 0 7.679688-1.464844 10.605469-4.394531 65.300781-65.296875 37.046875-109.828125 14.347656-145.613281-18.78125-29.605469-33.613281-52.988282-11.960937-90.492188zm0 0"/><path d="m281.722656 271.5c4.144532-7.175781 1.683594-16.351562-5.488281-20.492188-7.175781-4.144531-16.351563-1.683593-20.492187 5.492188-30.734376 53.234375-6.699219 91.121094 12.613281 121.5625 22.105469 34.847656 38.078125 60.023438-10.226563 108.332031-5.859375 5.855469-5.859375 15.355469 0 21.210938 2.925782 2.929687 6.765625 4.394531 10.605469 4.394531 3.835937 0 7.675781-1.464844 10.605469-4.394531 65.296875-65.296875 37.046875-109.828125 14.347656-145.613281-18.78125-29.605469-33.617188-52.988282-11.964844-90.492188zm0 0"/></svg>